<?xml version="1.0" standalone="no"?>
<!DOCTYPE svg PUBLIC "-//W3C//DTD SVG 20010904//EN"
 "http://www.w3.org/TR/2001/REC-SVG-20010904/DTD/svg10.dtd">
<svg version="1.0" xmlns="http://www.w3.org/2000/svg"
 width="109.000000pt" height="109.000000pt" viewBox="0 0 109.000000 109.000000"
 preserveAspectRatio="xMidYMid meet">
<metadata>
Created by potrace 1.14, written by Peter Selinger 2001-2017
</metadata>
<g transform="translate(0.000000,109.000000) scale(0.100000,-0.100000)"
fill="#000000" stroke="none">
<path d="M144 809 c-20 -21 -33 -42 -30 -47 3 -6 -3 -17 -14 -25 -20 -14 -26
-67 -6 -64 5 1 12 -8 15 -20 7 -28 100 -125 112 -117 5 3 25 -11 44 -32 19
-20 35 -31 35 -23 0 12 2 12 9 1 4 -8 11 -13 15 -13 3 1 14 -7 24 -16 22 -23
22 -121 0 -137 -8 -6 -16 -15 -16 -21 -1 -5 -28 -10 -59 -11 -65 -1 -86 4 -77
17 3 5 -2 9 -10 9 -9 0 -16 6 -16 14 0 8 -7 17 -16 20 -10 4 -14 16 -12 36 2
20 -4 36 -20 51 -13 11 -26 18 -30 14 -10 -10 -11 -174 -1 -181 5 -2 19 2 32
11 22 14 25 14 40 -2 13 -15 31 -18 99 -17 107 2 110 2 103 14 -3 6 3 10 14
10 11 0 26 7 35 15 8 8 19 15 23 15 5 0 10 39 11 86 2 57 -1 83 -8 79 -8 -5
-11 4 -10 30 1 12 -31 37 -43 33 -13 -5 -58 37 -49 46 5 6 -22 10 -41 7 -4 -1
-10 6 -13 14 -4 8 -15 15 -27 15 -29 0 -85 61 -87 96 -4 51 0 74 11 74 6 0 16
6 24 13 8 9 33 13 69 11 51 -2 78 8 62 24 -4 3 -40 6 -82 7 -73 0 -75 0 -110
-36z"/>
<path d="M479 839 c-7 -4 1 -18 20 -36 31 -30 31 -31 31 -132 0 -75 3 -103 13
-107 10 -3 13 -29 13 -96 -1 -73 2 -93 16 -102 11 -8 16 -24 14 -58 -2 -39 1
-48 18 -52 27 -7 96 59 96 91 0 13 5 22 13 21 7 -2 12 7 12 22 0 18 6 26 23
28 12 2 22 8 22 13 0 6 3 8 8 6 4 -3 8 6 8 19 2 27 -8 31 -29 9 -8 -8 -17 -11
-21 -8 -3 4 -6 -4 -6 -16 0 -14 -5 -21 -12 -18 -7 2 -13 16 -13 30 1 15 -3 27
-8 27 -4 0 -5 5 -2 11 13 21 6 151 -9 163 -10 8 -14 32 -13 85 2 69 3 74 24
76 27 2 39 12 29 22 -9 9 -233 11 -247 2z"/>
<path d="M872 830 c2 -10 15 -15 40 -14 44 1 54 -16 28 -46 -10 -12 -17 -30
-15 -41 3 -17 -5 -23 -27 -20 -3 0 -5 -7 -4 -16 4 -23 31 -24 54 -3 11 11 22
17 24 15 2 -3 5 12 5 31 1 41 36 84 63 79 10 -2 21 3 24 11 3 9 1 12 -4 9 -6
-3 -10 -3 -10 2 0 4 -41 8 -90 8 -76 0 -90 -2 -88 -15z"/>
<path d="M390 830 c0 -5 -10 -10 -23 -10 -33 0 -40 -10 -21 -31 8 -9 16 -26
17 -38 1 -11 7 -21 14 -21 7 0 13 -11 13 -24 0 -27 15 -42 25 -26 5 8 9 104 6
148 -1 14 -31 17 -31 2z"/>
<path d="M870 640 c-17 -11 -8 -23 14 -18 9 2 12 8 8 15 -5 8 -13 9 -22 3z"/>
<path d="M836 611 c-3 -5 1 -11 9 -15 15 -6 29 7 18 18 -9 9 -21 8 -27 -3z"/>
<path d="M803 546 c-13 -13 -20 -26 -16 -30 11 -11 23 -6 23 10 0 8 4 13 8 10
4 -2 14 -1 20 3 10 6 10 10 0 19 -10 8 -19 5 -35 -12z"/>
<path d="M850 470 c0 -5 5 -10 11 -10 5 0 7 5 4 10 -3 6 -8 10 -11 10 -2 0 -4
-4 -4 -10z"/>
<path d="M816 412 c-2 -4 -1 -14 4 -22 7 -11 9 -9 7 8 -1 24 -3 26 -11 14z"/>
</g>
</svg>
